<?xml version="1.0" encoding="UTF-8" standalone="no"?>
<!-- Created with Inkscape (http://www.inkscape.org/) -->

<svg
   width="480"
   height="480"
   viewBox="0 0 480 480"
   version="1.1"
   id="SVGRoot"
   sodipodi:docname="icon.svg"
   inkscape:version="1.2.2 (b0a8486, 2022-12-01)"
   inkscape:export-filename="icon.png"
   inkscape:export-xdpi="96"
   inkscape:export-ydpi="96"
   xmlns:inkscape="http://www.inkscape.org/namespaces/inkscape"
   xmlns:sodipodi="http://sodipodi.sourceforge.net/DTD/sodipodi-0.dtd"
   xmlns="http://www.w3.org/2000/svg"
   xmlns:svg="http://www.w3.org/2000/svg">
  <sodipodi:namedview
     id="namedview110"
     pagecolor="#ffffff"
     bordercolor="#666666"
     borderopacity="1.0"
     inkscape:pageshadow="2"
     inkscape:pageopacity="0.0"
     inkscape:pagecheckerboard="0"
     inkscape:document-units="px"
     showgrid="true"
     inkscape:zoom="0.93303299"
     inkscape:cx="243.82846"
     inkscape:cy="231.50307"
     inkscape:window-width="1280"
     inkscape:window-height="698"
     inkscape:window-x="0"
     inkscape:window-y="25"
     inkscape:window-maximized="1"
     inkscape:current-layer="layer1"
     inkscape:showpageshadow="2"
     inkscape:deskcolor="#d1d1d1">
    <inkscape:grid
       type="xygrid"
       id="grid116"
       originx="0"
       originy="0" />
  </sodipodi:namedview>
  <defs
     id="defs105" />
  <g
     inkscape:label="レイヤー 1"
     inkscape:groupmode="layer"
     id="layer1">
    <path
       fill="currentColor"
       d="m 285.7159,150.1726 a 27.212598,27.212598 0 1 0 -27.2126,-27.2126 27.212598,27.212598 0 0 0 27.2126,27.2126 z m -2.26772,68.59842 a 18.085039,18.085039 0 0 0 11.33859,3.96851 h 36.28346 a 18.141735,18.141735 0 0 0 0,-36.28347 H 301.14771 L 260.77102,154.1411 a 18.107717,18.107717 0 0 0 -23.13638,0.38552 l -63.49606,54.42519 a 18.141732,18.141732 0 0 0 1.74614,28.86803 l 46.33512,30.90898 v 62.8611 a 18.141732,18.141732 0 0 0 36.28346,0 v -72.56693 a 18.141732,18.141732 0 0 0 -8.07874,-15.09165 L 226.97638,228.3011 260,200 Z m 65.76378,22.11024 a 72.566928,72.566928 0 1 0 72.56692,72.56692 72.566928,72.566928 0 0 0 -72.56692,-72.56692 z m 0,108.85039 a 36.283464,36.283464 0 1 1 36.28346,-36.28347 36.283464,36.283464 0 0 1 -36.28346,36.28347 z M 131.51118,240.88126 a 72.566928,72.566928 0 1 0 72.56692,72.56692 72.566928,72.566928 0 0 0 -72.56692,-72.56692 z m 0,108.85039 a 36.283464,36.283464 0 1 1 36.28346,-36.28347 36.283464,36.283464 0 0 1 -36.28346,36.28347 z"
       id="path157"
       style="stroke-width:0.566928" />
  </g>
</svg>
