<svg version="1.1" width="137" height="294" viewBox="-1 -1 137 294" xmlns="http://www.w3.org/2000/svg" xmlns:xlink="http://www.w3.org/1999/xlink">
  <!-- Exported by Scratch - http://scratch.mit.edu/ -->
  <g id="ID0.6510941348969936">
    <path id="ID0.015463486313819885" fill="none" stroke="#000000" stroke-width="2" stroke-linecap="round" d="M 207 335 L 207 45 " transform="matrix(1, 0, 0, 1, -176, -44)"/>
    <path id="ID0.9570493390783668" fill="none" stroke="#000000" stroke-width="2" stroke-linecap="round" d="M 206 45 L 261 45 " transform="matrix(1, 0, 0, 1, -175, -44)"/>
    <path id="ID0.3190371752716601" fill="none" stroke="#000000" stroke-width="2" stroke-linecap="round" d="M 261 46 L 261 65 " transform="matrix(1, 0, 0, 1, -175, -45)"/>
    <path id="ID0.959236457478255" fill="none" stroke="#000000" stroke-width="2" stroke-linecap="round" d="M 311 339 L 178 339 " transform="matrix(1, 0, 0, 1, -177, -48)"/>
  </g>
  <path id="ID0.5790575435385108" fill="#FFFFFF" stroke="#000000" stroke-width="2" d="M 262 64 C 268.070 64 273.570 66.465 277.552 70.448 C 281.535 74.430 284 79.930 284 86 C 284 92.070 281.535 97.570 277.552 101.552 C 273.570 105.535 268.070 108 262 108 C 255.930 108 250.430 105.535 246.448 101.552 C 242.465 97.570 240 92.070 240 86 C 240 79.930 242.465 74.430 246.448 70.448 C 250.430 66.465 255.930 64 262 64 Z " transform="matrix(1, 0, 0, 1, -176, -44)"/>
</svg>